# xmcd CD database file
#
# Track frame offsets:
#	150
#	39102
#	62357
#	82998
#	118006
#	151633
#	173482
#	201362
#	222979
#	246230
#	266293
#	300944
#
# Disc length: 4328 seconds
#
# Revision: 5
# Processed by: cddbd v1.5.2PL0 Copyright (c) Steve Scherf et al.
# Submitted via: CDex 1.70beta2
#
DISCID=8910e60c
DTITLE=Enrico Rava, Stefano Bollani - The Third Man
DYEAR=2007
DGENRE=Jazz
TTITLE0=Estate
TTITLE1=The Third Man
TTITLE2=Sun Bay
TTITLE3=Retrato Em Branco Y Preto
TTITLE4=Birth Of A Butterfly
TTITLE5=Cumpari
TTITLE6=Sweet Light
TTITLE7=Santa Teresa
TTITLE8=Felipe
TTITLE9=In Search Of Titina
TTITLE10=Retrato Em Branco Y Preto, var.
TTITLE11=Birth Of A Butterfly, var.
EXTD=Enrico Rava, trumpet n\Stefano Bollani, piano n\Recorded November 2006 n\Auditorio Radio Svizzera, Lugano n\Engineer: Stefano Amerio n\Assistant: Gabriele Kamm n\Photos: Rüdiger Scheidges n\Design: Sascha Kleis n\Produced by Manfred Eicher n\An ECM 
EXTD=Production n\in collaboration with RSI RETE Due, Lugano n\Thanks to Paolo Keller n\©℗2008 ECM Records GmbH YEAR: 2007
EXTT0=Bruno Martino - Bruno Brighetti
EXTT1=Enrico Rava - Stefano Bollani
EXTT2=Enrico Rava
EXTT3=Antonio Carlos Jobim
EXTT4=Enrico Rava
EXTT5=Enrico Rava
EXTT6=Enrico Rava
EXTT7=Stefano Bollani
EXTT8=Moacir Santos
EXTT9=Enrico Rava
EXTT10=Antonio Carlos Jobim
EXTT11=Enrico Rava
PLAYORDER=
